<?xml version="1.0" encoding="UTF-8" ?>
<!DOCTYPE svg PUBLIC "-//W3C//DTD SVG 1.1//EN" "http://www.w3.org/Graphics/SVG/1.1/DTD/svg11.dtd">
<svg width="1412pt" height="1300pt" viewBox="0 0 1412 1300" version="1.1" xmlns="http://www.w3.org/2000/svg">
<path fill="#000000" opacity="1.00" d=" M 788.65 15.71 C 820.67 5.04 857.69 16.24 879.94 41.06 C 905.41 70.32 904.19 111.38 914.20 146.89 C 931.97 144.61 949.05 137.75 967.15 138.00 C 1011.07 137.09 1057.32 168.26 1061.53 214.35 C 1078.00 264.08 1037.83 314.47 990.50 326.56 C 781.86 370.90 573.37 416.11 364.75 460.64 C 325.27 472.09 277.22 459.36 253.89 424.11 C 244.21 410.59 242.23 393.92 238.44 378.21 C 231.75 337.06 260.15 296.49 297.82 281.84 C 309.22 276.40 321.89 274.99 333.98 271.73 C 330.43 249.87 324.53 228.43 320.39 206.66 C 308.36 161.78 340.33 112.04 385.23 102.19 C 519.73 73.52 654.18 44.54 788.65 15.71 M 804.57 52.51 C 668.99 81.60 533.40 110.64 397.85 139.85 C 378.34 142.49 362.83 158.75 358.19 177.42 C 356.49 192.19 361.11 206.50 363.15 220.96 L 363.95 220.79 C 366.45 233.91 369.69 246.88 372.23 259.99 C 405.04 253.63 437.61 245.94 470.43 239.58 C 477.06 228.90 482.53 217.55 489.15 206.86 C 498.82 213.55 506.85 222.36 516.59 228.97 C 636.15 204.37 755.32 177.27 874.98 152.82 C 872.42 139.13 870.16 125.36 866.49 111.92 C 864.48 103.07 863.02 94.09 860.72 85.30 C 854.14 62.32 827.98 46.22 804.57 52.51 M 954.73 178.54 C 744.44 224.36 533.80 268.65 323.48 314.48 C 297.17 320.37 271.16 346.21 277.80 375.02 C 280.05 382.63 280.74 390.75 283.99 398.07 L 284.91 398.15 C 295.27 420.91 324.44 427.91 347.27 424.48 C 379.53 416.80 412.13 410.54 444.56 403.60 C 448.38 396.70 451.71 389.48 456.12 382.93 C 463.02 386.16 467.38 393.20 474.18 396.57 C 501.99 391.79 529.38 384.55 557.12 379.26 C 563.69 367.45 570.01 355.50 576.81 343.83 C 578.08 341.11 579.45 338.45 580.81 335.78 C 583.32 337.70 585.87 339.59 588.46 341.42 L 587.66 341.63 C 597.60 349.62 607.60 357.56 617.10 366.08 C 736.86 340.73 856.50 314.98 976.14 289.16 C 999.90 284.05 1025.11 265.13 1025.23 239.00 C 1023.98 224.11 1022.46 207.63 1012.24 195.74 C 997.67 180.52 975.27 174.59 954.73 178.54 Z" />
<path fill="#ee4036" opacity="1.00" d=" M 804.57 52.51 C 827.98 46.22 854.14 62.32 860.72 85.30 C 863.02 94.09 864.48 103.07 866.49 111.92 C 699.47 150.07 531.38 184.16 363.95 220.79 L 363.15 220.96 C 361.11 206.50 356.49 192.19 358.19 177.42 C 362.83 158.75 378.34 142.49 397.85 139.85 C 533.40 110.64 668.99 81.60 804.57 52.51 Z" />
<path fill="#be1e2d" opacity="1.00" d=" M 866.49 111.92 C 870.16 125.36 872.42 139.13 874.98 152.82 C 755.32 177.27 636.15 204.37 516.59 228.97 C 506.85 222.36 498.82 213.55 489.15 206.86 C 482.53 217.55 477.06 228.90 470.43 239.58 C 437.61 245.94 405.04 253.63 372.23 259.99 C 369.69 246.88 366.45 233.91 363.95 220.79 C 531.38 184.16 699.47 150.07 866.49 111.92 Z" />
<path fill="#ffffff" opacity="1.00" d=" M 954.73 178.54 C 975.27 174.59 997.67 180.52 1012.24 195.74 C 1022.46 207.63 1023.98 224.11 1025.23 239.00 C 1014.98 246.03 1003.59 251.22 991.69 254.73 C 857.30 283.71 722.82 312.30 588.46 341.42 C 585.87 339.59 583.32 337.70 580.81 335.78 C 579.45 338.45 578.08 341.11 576.81 343.83 C 493.02 361.55 409.39 380.10 325.54 397.58 C 312.18 400.89 298.41 399.77 284.91 398.15 L 283.99 398.07 C 280.74 390.75 280.05 382.63 277.80 375.02 C 271.16 346.21 297.17 320.37 323.48 314.48 C 533.80 268.65 744.44 224.36 954.73 178.54 Z" />
<path fill="#f05a28" opacity="1.00" d=" M 178.85 235.78 C 183.47 226.77 187.82 217.62 192.63 208.71 C 196.11 218.04 201.80 226.34 205.29 235.67 C 215.16 237.79 225.29 237.80 235.25 239.29 C 229.05 247.40 221.08 253.97 214.07 261.37 C 214.60 271.02 217.93 280.33 217.92 290.06 C 209.01 286.41 201.06 280.80 192.10 277.24 C 183.05 280.81 175.19 286.76 166.02 290.05 C 167.26 280.13 169.06 270.27 169.97 260.31 C 163.15 253.28 155.62 246.99 148.70 240.07 C 158.62 237.74 169.00 238.53 178.85 235.78 Z" />
<path fill="#f05a28" opacity="1.00" d=" M 1158.72 237.94 C 1162.54 231.81 1164.92 224.92 1168.62 218.73 C 1171.04 225.25 1174.56 231.26 1177.63 237.48 C 1183.95 238.18 1190.34 238.82 1196.59 240.17 C 1195.21 245.83 1188.11 249.58 1184.10 254.27 C 1184.60 261.18 1185.62 268.04 1186.02 274.97 C 1179.72 272.03 1173.74 268.38 1167.14 266.18 C 1161.34 268.92 1155.93 272.44 1150.10 275.13 C 1155.91 260.52 1151.25 248.27 1137.88 240.15 C 1144.76 238.89 1151.71 238.20 1158.72 237.94 Z" />
<path fill="#bbbdbf" opacity="1.00" d=" M 991.69 254.73 C 1003.59 251.22 1014.98 246.03 1025.23 239.00 C 1025.11 265.13 999.90 284.05 976.14 289.16 C 856.50 314.98 736.86 340.73 617.10 366.08 C 607.60 357.56 597.60 349.62 587.66 341.63 L 588.46 341.42 C 722.82 312.30 857.30 283.71 991.69 254.73 Z" />
<path fill="#f05a28" opacity="1.00" d=" M 1300.24 305.75 C 1304.59 313.29 1306.71 322.20 1312.21 329.02 C 1321.02 331.69 1330.34 331.62 1339.31 333.58 C 1333.33 339.41 1326.66 344.52 1320.98 350.65 C 1318.16 359.69 1322.73 368.91 1322.98 378.06 C 1315.36 375.09 1308.76 369.53 1301.00 367.16 C 1292.51 369.47 1285.03 374.49 1277.03 378.03 C 1278.13 369.63 1279.40 361.24 1281.16 352.95 C 1275.04 346.11 1268.17 340.02 1261.82 333.42 C 1270.73 332.17 1280.39 332.40 1288.76 328.82 C 1293.25 321.51 1295.75 313.11 1300.24 305.75 Z" />
<path fill="#f05a28" opacity="1.00" d=" M 1099.77 373.89 C 1107.40 361.32 1112.60 346.32 1120.07 334.28 C 1127.21 346.42 1134.36 360.94 1140.56 374.47 C 1155.31 377.65 1171.19 375.68 1185.26 381.70 C 1174.12 391.45 1164.72 403.08 1153.12 412.31 C 1153.89 427.49 1159.18 441.99 1159.77 457.17 C 1146.39 451.37 1134.18 443.20 1120.90 437.16 C 1106.62 442.30 1094.20 451.40 1080.23 457.23 C 1081.88 442.58 1085.46 428.17 1086.96 413.53 C 1078.15 400.70 1064.08 392.55 1054.65 380.30 C 1069.86 379.36 1084.81 376.66 1099.77 373.89 Z" />
<path fill="#bbbdbf" opacity="1.00" d=" M 325.54 397.58 C 409.39 380.10 493.02 361.55 576.81 343.83 C 570.01 355.50 563.69 367.45 557.12 379.26 C 529.38 384.55 501.99 391.79 474.18 396.57 C 467.38 393.20 463.02 386.16 456.12 382.93 C 451.71 389.48 448.38 396.70 444.56 403.60 C 412.13 410.54 379.53 416.80 347.27 424.48 C 324.44 427.91 295.27 420.91 284.91 398.15 C 298.41 399.77 312.18 400.89 325.54 397.58 Z" />
<path fill="#000000" opacity="1.00" d=" M 619.36 430.33 C 715.45 394.12 825.08 398.31 918.73 440.26 C 1000.40 475.16 1072.00 533.06 1124.45 604.64 C 1126.45 607.68 1130.50 604.33 1132.85 604.06 C 1152.50 595.96 1175.50 599.84 1193.37 610.65 C 1224.63 629.03 1242.35 663.62 1249.91 698.07 C 1261.10 745.65 1251.58 801.60 1215.47 836.57 C 1214.20 854.67 1216.09 872.90 1213.88 890.95 C 1264.90 897.13 1317.52 902.65 1364.78 924.23 C 1380.75 931.78 1395.80 947.54 1392.86 966.58 C 1387.94 987.42 1368.00 998.68 1351.16 1009.17 C 1283.89 1042.92 1206.53 1050.46 1132.33 1051.26 C 1062.05 1120.41 965.46 1155.14 870.41 1173.44 C 737.15 1196.02 592.83 1198.05 468.90 1137.09 C 395.77 1101.75 337.34 1035.62 318.24 955.89 C 288.05 998.76 249.73 1037.47 203.02 1062.02 C 181.97 1073.27 146.77 1082.90 133.83 1056.25 C 126.43 1035.14 132.85 1011.90 140.74 991.76 C 158.87 947.21 188.62 908.23 222.15 874.14 C 164.52 867.56 105.38 850.38 59.82 813.19 C 44.38 800.62 32.43 775.39 48.93 758.87 C 64.54 743.01 87.94 739.48 108.91 735.86 C 181.63 729.65 256.40 745.52 319.77 781.94 C 355.85 626.62 468.90 487.12 619.36 430.33 M 528.62 521.63 C 447.75 583.75 386.17 672.85 360.02 771.54 C 428.99 802.64 506.48 805.15 578.44 826.54 C 626.16 839.71 680.27 866.97 690.90 920.14 C 673.52 895.57 651.31 873.72 623.33 861.67 C 572.96 839.83 517.00 839.91 463.73 830.27 C 436.98 825.10 410.81 817.53 384.95 809.07 C 392.59 824.51 407.41 834.10 422.21 841.79 C 463.71 862.74 509.72 873.08 555.21 880.96 C 494.04 883.85 429.20 875.45 376.95 841.04 C 392.84 867.08 424.38 877.46 452.02 885.98 C 493.22 897.09 535.64 903.17 578.24 904.67 C 516.41 913.91 449.19 910.91 391.73 884.24 C 413.06 912.86 451.19 920.16 484.41 924.54 C 521.15 929.83 558.33 931.65 595.35 933.74 C 537.80 944.58 477.35 945.80 420.67 929.35 C 396.89 921.79 372.51 906.65 365.86 881.07 C 365.59 866.55 347.58 862.18 345.58 847.66 C 342.89 890.52 345.67 935.38 362.81 975.21 C 385.71 1039.89 442.28 1087.59 504.17 1113.83 C 607.02 1157.10 722.35 1157.51 831.32 1143.38 C 919.68 1129.74 1009.36 1104.33 1081.06 1048.76 C 1065.71 1046.41 1048.78 1044.21 1037.03 1032.95 C 1017.22 1011.47 1015.69 979.46 1019.03 952.03 C 1021.85 920.36 1042.67 884.36 1078.05 884.18 C 1111.42 884.28 1144.77 885.34 1178.08 887.80 C 1178.30 876.84 1179.09 865.91 1179.08 854.96 C 1178.15 855.41 1177.23 855.87 1176.33 856.34 C 1127.03 861.29 1089.30 818.16 1076.29 774.70 C 1062.46 735.61 1065.81 692.09 1080.97 653.97 C 1086.05 645.21 1091.69 636.78 1096.97 628.13 C 1028.08 533.75 923.18 463.24 806.85 445.06 C 708.60 430.78 606.47 460.82 528.62 521.63 M 1144.24 626.05 C 1111.10 637.77 1095.13 674.89 1093.24 707.71 C 1090.03 752.08 1104.70 805.09 1146.89 827.09 C 1177.75 842.45 1209.78 815.66 1219.05 787.05 C 1236.30 750.84 1230.93 706.92 1214.99 671.03 C 1202.01 645.21 1175.87 618.36 1144.24 626.05 M 1070.27 922.75 C 1055.94 935.61 1053.20 957.69 1053.65 976.23 C 1055.03 988.38 1055.08 1007.94 1070.48 1010.59 C 1121.41 1018.77 1173.76 1016.12 1224.65 1008.69 C 1266.26 1002.26 1309.40 994.06 1344.99 970.27 L 1344.19 970.41 C 1348.99 968.68 1352.56 964.78 1356.42 961.61 C 1336.16 947.46 1311.06 943.45 1287.40 938.62 C 1239.97 927.26 1191.07 925.84 1142.74 921.20 C 1118.68 922.15 1093.85 917.08 1070.27 922.75 Z" />
<path fill="#ffcc00" opacity="1.00" d=" M 528.62 521.63 C 606.47 460.82 708.60 430.78 806.85 445.06 C 923.18 463.24 1028.08 533.75 1096.97 628.13 C 1091.69 636.78 1086.05 645.21 1080.97 653.97 C 1031.77 705.77 1039.06 798.35 1091.25 845.75 C 1113.68 866.59 1149.64 872.90 1176.33 856.34 C 1177.23 855.87 1178.15 855.41 1179.08 854.96 C 1179.09 865.91 1178.30 876.84 1178.08 887.80 C 1144.77 885.34 1111.42 884.28 1078.05 884.18 C 1069.68 883.62 1063.53 876.68 1055.32 875.45 C 1032.33 869.46 1009.59 883.30 996.08 901.09 C 969.71 936.63 964.68 985.29 978.92 1026.69 C 948.03 1037.04 916.45 1045.37 884.46 1051.57 C 842.37 1058.19 801.31 1039.58 759.26 1043.14 C 732.60 1045.53 714.08 1070.49 686.80 1070.69 C 656.69 1069.67 631.52 1050.28 602.28 1045.57 C 583.69 1041.91 571.01 1064.14 552.22 1058.05 C 530.36 1048.94 517.66 1025.99 495.69 1017.05 C 477.19 1011.18 461.58 1029.87 443.38 1024.92 C 414.15 1012.70 387.31 995.19 362.81 975.21 C 345.67 935.38 342.89 890.52 345.58 847.66 C 347.58 862.18 365.59 866.55 365.86 881.07 C 372.51 906.65 396.89 921.79 420.67 929.35 C 477.35 945.80 537.80 944.58 595.35 933.74 C 558.33 931.65 521.15 929.83 484.41 924.54 C 451.19 920.16 413.06 912.86 391.73 884.24 C 449.19 910.91 516.41 913.91 578.24 904.67 C 535.64 903.17 493.22 897.09 452.02 885.98 C 424.38 877.46 392.84 867.08 376.95 841.04 C 429.20 875.45 494.04 883.85 555.21 880.96 C 509.72 873.08 463.71 862.74 422.21 841.79 C 407.41 834.10 392.59 824.51 384.95 809.07 C 410.81 817.53 436.98 825.10 463.73 830.27 C 517.00 839.91 572.96 839.83 623.33 861.67 C 651.31 873.72 673.52 895.57 690.90 920.14 C 680.27 866.97 626.16 839.71 578.44 826.54 C 506.48 805.15 428.99 802.64 360.02 771.54 C 386.17 672.85 447.75 583.75 528.62 521.63 M 879.33 621.35 C 853.89 625.69 832.89 643.68 817.53 663.53 C 774.50 722.83 779.12 809.98 823.98 867.00 C 807.23 882.26 789.24 896.32 773.03 912.14 C 777.88 920.23 785.95 926.38 791.35 934.30 C 810.05 920.22 826.99 903.75 844.92 888.64 C 851.18 891.76 856.39 896.73 862.90 899.36 C 853.57 920.39 844.64 941.62 835.90 962.91 C 844.80 966.87 853.82 970.55 862.84 974.21 C 873.53 953.44 881.21 931.28 891.02 910.09 C 934.60 919.53 982.07 895.22 1001.76 855.78 C 1041.90 809.48 1044.82 740.08 1023.27 684.71 C 1009.98 651.35 984.03 620.84 948.87 610.18 C 925.47 602.19 899.73 608.55 879.33 621.35 Z" />
<path fill="#f05a28" opacity="1.00" d=" M 99.43 476.53 C 103.98 468.02 107.83 459.13 112.64 450.77 C 116.52 459.58 120.92 468.15 125.43 476.66 C 135.10 477.24 144.61 479.18 154.17 480.63 C 147.62 487.69 139.53 493.31 133.31 500.63 C 133.71 510.25 135.97 519.67 138.00 529.06 C 128.87 525.52 120.93 519.54 111.87 515.79 C 103.47 520.03 95.52 525.14 86.89 528.94 C 88.20 519.37 90.06 509.87 90.85 500.24 C 84.45 493.30 77.20 487.20 70.73 480.33 C 80.27 478.88 89.85 477.69 99.43 476.53 Z" />
<path fill="#f05a28" opacity="1.00" d=" M 272.20 503.76 C 275.64 510.72 278.76 517.84 282.34 524.74 C 289.84 525.74 297.35 526.62 304.91 527.14 C 300.10 532.68 294.88 537.85 289.19 542.49 C 288.52 550.19 290.62 557.69 291.80 565.23 C 283.42 563.49 275.83 552.56 267.01 557.88 C 262.27 560.10 257.77 562.78 253.07 565.07 C 253.80 557.76 254.94 550.50 255.95 543.23 C 250.53 538.01 245.05 532.87 239.85 527.44 C 247.16 526.77 254.36 525.36 261.67 524.75 C 265.43 517.88 268.68 510.75 272.20 503.76 Z" />
<path fill="#f05a28" opacity="1.00" d=" M 1248.12 510.88 C 1253.24 521.12 1257.93 531.60 1263.46 541.64 C 1274.31 542.91 1285.15 544.47 1295.95 546.03 C 1291.00 555.45 1279.51 560.52 1273.32 569.50 C 1273.52 580.78 1276.98 591.86 1277.89 603.13 C 1268.04 598.52 1258.75 592.73 1248.90 588.21 C 1237.69 591.48 1228.42 599.21 1217.81 603.85 C 1219.36 592.74 1223.05 581.93 1222.92 570.61 C 1216.69 561.48 1207.69 554.60 1200.02 546.70 C 1210.91 545.29 1221.54 542.21 1232.56 541.72 C 1238.80 531.98 1242.79 521.09 1248.12 510.88 Z" />
<path fill="#f05a28" opacity="1.00" d=" M 178.85 579.78 C 183.47 570.77 187.82 561.62 192.63 552.71 C 196.11 562.04 201.80 570.34 205.29 579.67 C 215.16 581.79 225.29 581.80 235.25 583.29 C 229.05 591.40 221.08 597.97 214.07 605.37 C 214.60 615.02 217.93 624.32 217.92 634.06 C 209.01 630.41 201.06 624.80 192.10 621.24 C 183.05 624.81 175.19 630.76 166.02 634.05 C 167.26 624.12 169.06 614.27 169.97 604.31 C 163.15 597.28 155.62 590.98 148.70 584.07 C 158.62 581.74 169.00 582.53 178.85 579.78 Z" />
<path fill="#000000" opacity="1.00" d=" M 879.33 621.35 C 899.73 608.55 925.47 602.19 948.87 610.18 C 984.03 620.84 1009.98 651.35 1023.27 684.71 C 1044.82 740.08 1041.90 809.48 1001.76 855.78 C 976.39 886.86 928.47 895.84 894.12 874.90 C 842.68 844.26 821.93 779.66 826.39 722.57 C 830.41 684.01 846.76 644.34 879.33 621.35 M 911.47 636.37 C 875.15 648.93 856.21 689.37 854.90 725.53 C 849.34 776.69 871.05 841.82 925.14 857.98 C 957.47 865.70 985.64 839.40 997.36 811.81 L 997.92 811.47 C 1017.50 763.48 1011.58 704.81 979.40 663.61 C 963.38 643.87 937.65 628.88 911.47 636.37 Z" />
<path fill="#cea806" opacity="1.00" d=" M 817.53 663.53 C 832.89 643.68 853.89 625.69 879.33 621.35 C 846.76 644.34 830.41 684.01 826.39 722.57 C 821.93 779.66 842.68 844.26 894.12 874.90 C 928.47 895.84 976.39 886.86 1001.76 855.78 C 982.07 895.22 934.60 919.53 891.02 910.09 C 881.09 907.97 872.88 901.28 862.90 899.36 C 856.39 896.73 851.18 891.76 844.92 888.64 C 845.19 888.40 845.72 887.93 845.99 887.70 C 839.92 879.91 833.17 872.67 826.90 865.06 C 825.91 865.69 824.93 866.33 823.98 867.00 C 779.12 809.98 774.50 722.83 817.53 663.53 Z" />
<path fill="#ffffff" opacity="1.00" d=" M 1144.24 626.05 C 1175.87 618.36 1202.01 645.21 1214.99 671.03 C 1230.93 706.92 1236.30 750.84 1219.05 787.05 C 1200.43 805.52 1169.37 810.11 1147.00 795.94 C 1115.58 777.74 1099.92 741.96 1093.24 707.71 C 1095.13 674.89 1111.10 637.77 1144.24 626.05 M 1169.60 658.62 C 1155.49 691.34 1143.50 725.04 1129.88 757.99 C 1145.25 766.47 1159.28 777.18 1173.89 786.90 C 1177.96 780.69 1182.01 774.47 1185.94 768.17 C 1177.38 760.69 1166.41 756.32 1158.11 748.74 C 1167.54 720.58 1180.44 693.55 1189.85 665.36 C 1183.00 663.88 1176.03 658.85 1169.60 658.62 Z" />
<path fill="#ffffff" opacity="1.00" d=" M 911.47 636.37 C 937.65 628.88 963.38 643.87 979.40 663.61 C 1011.58 704.81 1017.50 763.48 997.92 811.47 L 997.36 811.81 C 976.32 828.34 947.04 836.01 921.89 824.11 C 883.32 807.00 862.17 765.28 854.90 725.53 C 856.21 689.37 875.15 648.93 911.47 636.37 M 900.70 686.97 C 916.67 710.94 933.75 734.14 950.35 757.68 C 952.05 760.20 955.72 763.62 952.74 766.61 C 942.50 778.73 931.28 789.98 920.90 801.97 C 928.28 808.69 935.86 815.23 943.13 822.09 C 959.93 803.76 977.92 785.50 992.90 766.07 C 970.66 733.84 947.92 701.67 924.96 669.87 C 916.86 675.55 908.56 680.98 900.70 686.97 Z" />
<path fill="#cea806" opacity="1.00" d=" M 1091.25 845.75 C 1039.06 798.35 1031.77 705.77 1080.97 653.97 C 1065.81 692.09 1062.46 735.61 1076.29 774.70 C 1089.30 818.16 1127.03 861.29 1176.33 856.34 C 1149.64 872.90 1113.68 866.59 1091.25 845.75 Z" />
<path fill="#000000" opacity="1.00" d=" M 1169.60 658.62 C 1176.03 658.85 1183.00 663.88 1189.85 665.36 C 1180.44 693.55 1167.54 720.58 1158.11 748.74 C 1166.41 756.32 1177.38 760.69 1185.94 768.17 C 1182.01 774.47 1177.96 780.69 1173.89 786.90 C 1159.28 777.18 1145.25 766.47 1129.88 757.99 C 1143.50 725.04 1155.49 691.34 1169.60 658.62 Z" />
<path fill="#000000" opacity="1.00" d=" M 900.70 686.97 C 908.56 680.98 916.86 675.55 924.96 669.87 C 947.92 701.67 970.66 733.84 992.90 766.07 C 977.92 785.50 959.93 803.76 943.13 822.09 C 935.86 815.23 928.28 808.69 920.90 801.97 C 931.28 789.98 942.50 778.73 952.74 766.61 C 955.72 763.62 952.05 760.20 950.35 757.68 C 933.75 734.14 916.67 710.94 900.70 686.97 Z" />
<path fill="#d0d2d3" opacity="1.00" d=" M 1093.24 707.71 C 1099.92 741.96 1115.58 777.74 1147.00 795.94 C 1169.37 810.11 1200.43 805.52 1219.05 787.05 C 1209.78 815.66 1177.75 842.45 1146.89 827.09 C 1104.70 805.09 1090.03 752.08 1093.24 707.71 Z" />
<path fill="#d0d2d3" opacity="1.00" d=" M 925.14 857.98 C 871.05 841.82 849.34 776.69 854.90 725.53 C 862.17 765.28 883.32 807.00 921.89 824.11 C 947.04 836.01 976.32 828.34 997.36 811.81 C 985.64 839.40 957.47 865.70 925.14 857.98 Z" />
<path fill="#000000" opacity="1.00" d=" M 823.98 867.00 C 824.93 866.33 825.91 865.69 826.90 865.06 C 833.17 872.67 839.92 879.91 845.99 887.70 C 845.72 887.93 845.19 888.40 844.92 888.64 C 826.99 903.75 810.05 920.22 791.35 934.30 C 785.95 926.38 777.88 920.23 773.03 912.14 C 789.24 896.32 807.23 882.26 823.98 867.00 Z" />
<path fill="#cea806" opacity="1.00" d=" M 996.08 901.09 C 1009.59 883.30 1032.33 869.46 1055.32 875.45 C 1063.53 876.68 1069.68 883.62 1078.05 884.18 C 1042.67 884.36 1021.85 920.36 1019.03 952.03 C 1015.69 979.46 1017.22 1011.47 1037.03 1032.95 C 1048.78 1044.21 1065.71 1046.41 1081.06 1048.76 C 1009.36 1104.33 919.68 1129.74 831.32 1143.38 C 722.35 1157.51 607.02 1157.10 504.17 1113.83 C 442.28 1087.59 385.71 1039.89 362.81 975.21 C 387.31 995.19 414.15 1012.70 443.38 1024.92 C 461.58 1029.87 477.19 1011.18 495.69 1017.05 C 517.66 1025.99 530.36 1048.94 552.22 1058.05 C 571.01 1064.14 583.69 1041.91 602.28 1045.57 C 631.52 1050.28 656.69 1069.67 686.80 1070.69 C 714.08 1070.49 732.60 1045.53 759.26 1043.14 C 801.31 1039.58 842.37 1058.19 884.46 1051.57 C 916.45 1045.37 948.03 1037.04 978.92 1026.69 C 964.68 985.29 969.71 936.63 996.08 901.09 Z" />
<path fill="#000000" opacity="1.00" d=" M 862.90 899.36 C 872.88 901.28 881.09 907.97 891.02 910.09 C 881.21 931.28 873.53 953.44 862.84 974.21 C 853.82 970.55 844.80 966.87 835.90 962.91 C 844.64 941.62 853.57 920.39 862.90 899.36 Z" />
<path fill="#ff6600" opacity="1.00" d=" M 1070.27 922.75 C 1093.85 917.08 1118.68 922.15 1142.74 921.20 C 1191.07 925.84 1239.97 927.26 1287.40 938.62 C 1311.06 943.45 1336.16 947.46 1356.42 961.61 C 1352.56 964.78 1348.99 968.68 1344.19 970.41 C 1248.59 989.33 1150.18 984.45 1053.65 976.23 C 1053.20 957.69 1055.94 935.61 1070.27 922.75 Z" />
<path fill="#cc3300" opacity="1.00" d=" M 1053.65 976.23 C 1150.18 984.45 1248.59 989.33 1344.19 970.41 L 1344.99 970.27 C 1309.40 994.06 1266.26 1002.26 1224.65 1008.69 C 1173.76 1016.12 1121.41 1018.77 1070.48 1010.59 C 1055.08 1007.94 1055.03 988.38 1053.65 976.23 Z" />
</svg>
